<?xml version="1.0" standalone="no"?>
<!DOCTYPE svg PUBLIC "-//W3C//DTD SVG 20010904//EN"
 "http://www.w3.org/TR/2001/REC-SVG-20010904/DTD/svg10.dtd">
<svg version="1.0" xmlns="http://www.w3.org/2000/svg"
 width="364.000000pt" height="339.000000pt" viewBox="0 0 364.000000 339.000000"
 preserveAspectRatio="xMidYMid meet">

<g transform="translate(0.000000,339.000000) scale(0.100000,-0.100000)"
fill="#000000" stroke="none">
<path d="M1489 2137 c-149 -51 -240 -131 -325 -288 -58 -106 -74 -150 -84
-229 l-6 -55 -22 47 c-29 64 -83 148 -129 199 -87 97 -265 183 -441 214 -155
27 -392 14 -392 -22 0 -11 300 -1426 303 -1429 1 -1 61 21 132 49 176 70 263
124 362 222 72 71 90 97 133 188 46 95 67 166 85 290 l6 39 26 -54 c37 -74
152 -186 233 -225 49 -24 59 -32 40 -33 -96 -3 -226 -22 -239 -35 -14 -13 -11
-32 23 -173 54 -219 55 -219 72 -226 9 -3 112 25 230 64 118 38 218 70 223 70
5 0 14 -22 21 -50 7 -27 18 -50 24 -50 15 0 216 293 216 314 0 19 -18 36 -79
75 -28 18 -51 36 -51 40 0 4 17 17 38 29 74 41 158 142 212 253 27 57 50 97
50 89 0 -8 -16 -141 -34 -295 -18 -154 -33 -281 -31 -282 1 -2 38 -11 83 -20
l82 -17 27 27 c15 14 24 29 20 33 -3 4 -41 15 -83 25 -42 10 -78 20 -81 23 -3
3 124 972 153 1166 l5 35 -33 -35 c-34 -35 -34 -37 -53 -199 -10 -89 -21 -177
-24 -194 -7 -30 -8 -28 -19 26 -38 187 -195 352 -383 402 -83 22 -211 19 -290
-8z m237 -260 c135 -69 196 -236 135 -372 -28 -64 -45 -81 -106 -113 -74 -38
-178 -38 -257 1 -105 52 -162 143 -162 262 -1 101 34 169 105 209 72 40 95 46
169 42 45 -2 81 -11 116 -29z m-1158 -123 c112 -54 216 -180 247 -299 39 -153
5 -308 -98 -444 -36 -46 -42 -51 -49 -35 -4 11 -51 190 -104 399 -52 209 -98
388 -101 399 -4 16 -1 18 23 12 16 -4 53 -18 82 -32z m900 -779 c7 -42 11 -48
27 -35 23 19 68 8 82 -21 20 -41 21 -113 2 -117 -12 -2 -20 11 -30 50 -11 42
-18 53 -34 53 -21 0 -23 -11 -14 -85 3 -30 1 -35 -16 -35 -16 0 -23 15 -42 95
-12 52 -22 101 -23 108 0 22 44 10 48 -13z m237 9 c19 -8 48 -61 40 -73 -3 -5
-23 -12 -46 -16 -24 -4 -38 -12 -36 -18 4 -13 28 -13 65 -2 16 6 22 3 22 -8 0
-38 -94 -51 -125 -17 -27 30 -25 97 4 121 24 20 47 24 76 13z m-335 -49 c0 -8
9 -15 20 -15 23 0 27 -25 5 -37 -23 -13 -1 -83 26 -83 31 0 20 -34 -12 -38
-35 -4 -55 17 -63 66 -4 28 -12 41 -26 45 -24 6 -27 27 -4 27 10 0 14 6 11 14
-6 16 11 36 30 36 7 0 13 -7 13 -15z"/>
<path d="M1646 935 c-3 -9 0 -15 8 -15 24 0 46 12 40 21 -9 14 -41 10 -48 -6z"/>
<path d="M2470 1901 c0 -11 -2 -25 -5 -33 -3 -8 14 -21 44 -35 59 -28 133
-100 160 -156 27 -55 27 -140 2 -208 -24 -62 -6 -50 34 23 38 70 41 169 7 239
-28 57 -116 143 -174 169 -54 25 -68 25 -68 1z"/>
<path d="M3170 1823 c-43 -71 -416 -874 -408 -879 15 -9 7 -18 -71 -83 l-73
-61 -32 42 c-18 24 -72 98 -120 166 -48 67 -91 120 -96 117 -4 -3 -11 -21 -14
-40 -6 -33 1 -47 95 -185 56 -83 106 -153 111 -156 4 -3 30 12 56 33 87 72 84
71 57 9 -14 -31 -25 -60 -25 -65 0 -4 41 -27 91 -49 l92 -42 42 37 c24 21 44
40 44 43 1 3 -39 23 -89 45 -49 22 -90 43 -90 47 0 5 102 235 226 511 124 276
228 508 231 515 8 19 -15 14 -27 -5z"/>
<path d="M3240 1319 c-20 -48 4 -166 36 -181 13 -6 27 -9 30 -6 7 8 -38 218
-47 218 -3 0 -12 -14 -19 -31z"/>
<path d="M2735 1279 c-33 -28 -77 -60 -97 -71 -21 -12 -38 -25 -38 -29 0 -22
23 -15 67 20 46 37 142 132 133 130 -3 0 -32 -23 -65 -50z"/>
<path d="M3026 921 l-15 -28 82 -17 c45 -10 120 -27 167 -37 l85 -20 -3 -109
-3 -110 49 0 c95 0 140 11 158 38 l17 25 -91 -6 -92 -7 7 109 c5 101 5 109
-13 114 -10 3 -84 20 -164 37 -80 17 -151 33 -157 35 -7 2 -19 -8 -27 -24z"/>
<path d="M2176 582 c-4 -6 0 -37 8 -69 21 -81 39 -268 32 -326 l-5 -49 52 7
c68 8 87 14 87 26 0 9 -28 7 -95 -6 -19 -4 -20 2 -22 118 -3 161 -36 333 -57
299z"/>
<path d="M2566 578 c-3 -7 -7 -94 -10 -193 -3 -99 -8 -196 -12 -215 l-6 -35
124 3 c138 3 167 9 128 24 -15 6 -67 7 -129 3 l-104 -7 7 33 c9 49 20 399 12
399 -4 0 -8 -6 -10 -12z"/>
<path d="M1280 580 c0 -3 -2 -79 -4 -170 -1 -91 -9 -189 -15 -218 -7 -29 -11
-55 -9 -57 1 -1 32 -4 67 -6 45 -3 65 0 68 9 4 9 -13 12 -61 12 l-65 0 9 28
c26 79 41 360 20 392 -5 8 -10 13 -10 10z"/>
<path d="M1576 572 c-3 -6 -1 -34 6 -64 6 -29 12 -126 12 -216 1 -158 2 -163
21 -157 11 3 58 12 105 21 47 9 95 18 108 20 12 2 22 9 22 15 0 12 -59 5 -166
-21 l-71 -17 5 93 c5 96 -13 313 -27 327 -5 5 -12 4 -15 -1z"/>
<path d="M1103 553 c-3 -10 -12 -33 -19 -52 -16 -39 -18 -53 -3 -29 14 25 39
98 33 98 -2 0 -7 -8 -11 -17z"/>
<path d="M896 551 c-3 -5 10 -33 30 -63 20 -29 47 -75 61 -102 16 -32 28 -45
35 -38 11 11 -13 64 -71 154 -36 58 -45 66 -55 49z"/>
<path d="M2863 549 c-8 -8 -8 -21 2 -48 21 -62 35 -173 35 -289 l0 -109 67 11
c39 7 68 17 71 25 3 9 -2 11 -14 8 -11 -3 -38 -9 -61 -12 l-43 -7 0 110 c0
101 -19 249 -38 301 -6 16 -10 19 -19 10z"/>
<path d="M544 517 c-3 -9 3 -56 15 -104 11 -48 28 -142 37 -208 10 -66 18
-121 19 -122 0 -1 29 6 63 17 34 11 91 24 127 31 36 6 65 15 65 20 0 14 -31
11 -136 -16 -53 -14 -98 -24 -99 -22 -1 1 -10 54 -19 117 -17 115 -53 291 -61
299 -3 2 -7 -3 -11 -12z"/>
<path d="M2318 513 c-29 -7 -20 -21 15 -25 24 -2 33 -8 35 -26 4 -29 22 -18
22 13 0 14 -8 29 -19 35 -20 10 -25 11 -53 3z"/>
<path d="M1879 473 c-42 -110 -20 -255 45 -298 63 -42 141 -38 186 10 l23 24
-39 -19 c-46 -24 -85 -25 -123 -5 -74 38 -111 135 -92 240 6 31 13 60 16 66 4
5 4 9 0 9 -3 0 -10 -12 -16 -27z"/>
<path d="M1390 476 c0 -8 10 -16 22 -18 12 -2 28 -13 34 -25 13 -27 24 -20 24
14 0 16 -8 27 -26 33 -36 14 -54 12 -54 -4z"/>
<path d="M2004 475 c-19 -14 -18 -14 3 -15 35 0 57 -52 58 -133 0 -68 0 -68
14 -35 23 56 -11 198 -49 198 -3 0 -15 -7 -26 -15z"/>
<path d="M2670 481 c0 -5 19 -11 43 -15 23 -4 57 -9 75 -12 24 -5 32 -3 32 9
0 9 -14 17 -37 21 -55 9 -113 7 -113 -3z"/>
<path d="M3287 482 c6 -4 13 -21 16 -37 l4 -30 2 32 c0 17 7 34 14 36 6 3 -1
6 -18 6 -16 0 -25 -3 -18 -7z"/>
<path d="M3350 480 c0 -8 -3 -25 -6 -37 -4 -13 -2 -23 4 -23 6 0 13 8 15 18 4
16 5 16 6 0 1 -25 18 -22 27 5 l8 22 7 -25 c6 -22 7 -20 8 13 1 40 -14 50 -25
15 l-6 -21 -19 24 c-13 16 -19 19 -19 9z"/>
<path d="M2990 471 c0 -5 12 -11 27 -13 17 -2 32 -12 40 -27 l12 -25 6 27 c4
14 4 31 0 36 -8 13 -85 15 -85 2z"/>
<path d="M693 463 c-13 -2 -23 -9 -23 -15 0 -7 16 -8 46 -4 26 3 60 6 75 6 16
0 29 5 29 10 0 10 -82 12 -127 3z"/>
<path d="M2409 383 c-13 -15 -12 -15 9 -4 23 12 28 21 13 21 -5 0 -15 -7 -22
-17z"/>
<path d="M1495 360 c-16 -11 -49 -22 -72 -26 -47 -7 -59 -24 -18 -24 35 0 86
23 109 49 23 25 20 25 -19 1z"/>
<path d="M3099 353 c-13 -15 -12 -15 9 -4 23 12 28 21 13 21 -5 0 -15 -7 -22
-17z"/>
<path d="M2660 335 c0 -11 11 -15 39 -15 49 0 62 15 20 24 -47 9 -59 7 -59 -9z"/>
<path d="M2320 328 c0 -7 14 -33 30 -57 17 -25 32 -63 36 -91 l6 -47 55 22
c59 25 98 53 53 40 -14 -4 -38 -14 -53 -22 -16 -8 -30 -13 -31 -11 -1 2 -8 27
-14 57 -7 30 -24 70 -38 88 -26 34 -44 43 -44 21z"/>
<path d="M695 310 c3 -5 22 -10 41 -10 19 0 34 5 34 10 0 6 -18 10 -41 10 -24
0 -38 -4 -34 -10z"/>
<path d="M3010 288 c0 -16 4 -28 10 -28 14 0 47 -69 55 -117 l7 -42 45 20 c24
10 51 19 58 19 7 0 15 7 19 15 4 12 -4 11 -47 -5 -29 -11 -53 -20 -54 -20 -1
0 -7 25 -13 56 -9 40 -22 67 -46 93 l-33 36 -1 -27z"/>
<path d="M1058 248 c-3 -9 26 -108 37 -125 3 -6 120 20 129 28 19 18 -4 20
-57 7 l-55 -14 -18 58 c-17 56 -28 71 -36 46z"/>
<path d="M887 143 c-18 -17 -1 -23 63 -23 39 0 70 4 70 9 0 15 -119 28 -133
14z"/>
</g>
</svg>
